<svg width="286" height="171" viewBox="0 0 286 171" fill="none" xmlns="http://www.w3.org/2000/svg">
<g clip-path="url(#clip0)">
<path d="M58.0005 111.5C82.4376 21.9808 226 34 233.001 111.5C356.501 120.5 188.932 157.001 146.309 145.365C112.666 167.763 -84.5001 145.366 58.0005 111.5Z" fill="#F2F2F2"/>
<path d="M163.421 143.361C162.108 142.925 160.691 143.636 160.254 144.949C159.654 146.756 159.079 148.583 158.546 150.379C158.152 151.706 158.907 153.1 160.234 153.494C160.471 153.565 160.712 153.598 160.948 153.598C162.028 153.598 163.025 152.894 163.348 151.806C163.866 150.061 164.425 148.285 165.009 146.528C165.445 145.215 164.734 143.798 163.421 143.361Z" fill="black"/>
<path d="M211.29 63.5738C210.27 62.6393 208.686 62.7091 207.752 63.7284C207.479 64.026 180.316 93.9334 164.232 134.098C163.718 135.382 164.342 136.84 165.626 137.354C165.931 137.476 166.246 137.534 166.557 137.534C167.55 137.534 168.491 136.939 168.883 135.96C184.616 96.6744 211.18 67.4036 211.446 67.1124C212.38 66.092 212.311 64.508 211.29 63.5738Z" fill="#E0E0E0"/>
<path d="M179.434 39.1938C178.257 38.4671 176.714 38.8325 175.987 40.0094C175.386 40.9823 161.178 64.4077 152.386 114.417C152.146 115.78 153.057 117.078 154.419 117.318C154.566 117.344 154.712 117.357 154.856 117.357C156.049 117.357 157.106 116.501 157.32 115.285C161.817 89.7074 167.813 71.3165 172.051 60.3922C176.636 48.5755 180.206 42.7137 180.251 42.6396C180.976 41.4626 180.611 39.9203 179.434 39.1938Z" fill="#828282"/>
<path d="M125.565 141.343C109.324 124.109 91.1653 112.634 78.7915 106.043C77.5711 105.393 76.0535 105.855 75.4029 107.076C74.7526 108.297 75.2152 109.814 76.4362 110.465C88.4787 116.879 106.145 128.04 121.919 144.779C122.412 145.302 123.076 145.566 123.743 145.566C124.359 145.566 124.976 145.34 125.46 144.884C126.467 143.935 126.514 142.35 125.565 141.343Z" fill="#E0E0E0"/>
<path d="M70.2106 101.786C68.4656 100.992 67.4803 100.595 67.4392 100.578C66.1551 100.062 64.6979 100.684 64.1815 101.967C63.6655 103.25 64.2871 104.709 65.5702 105.226C65.5796 105.23 66.5054 105.603 68.1346 106.346C68.4712 106.499 68.8239 106.571 69.1713 106.571C70.1228 106.571 71.0322 106.026 71.4524 105.104C72.0255 103.845 71.4694 102.36 70.2106 101.786Z" fill="black"/>
<path d="M140.454 150.38C127.529 106.854 98.2338 71.7317 92.4923 65.1332C91.5838 64.0895 90.0014 63.9796 88.9584 64.8877C87.9147 65.7958 87.8048 67.3782 88.7129 68.4216C94.3352 74.8835 123.022 109.272 135.651 151.806C135.975 152.894 136.972 153.598 138.052 153.598C138.288 153.598 138.528 153.564 138.766 153.494C140.092 153.101 140.848 151.706 140.454 150.38Z" fill="#828282"/>
<path d="M151.998 158.947C149.023 116.993 141.341 86.967 135.42 69.1666C128.963 49.7523 123.252 40.3984 123.012 40.0097C122.285 38.8327 120.741 38.4673 119.564 39.1941C118.387 39.9208 118.022 41.4642 118.749 42.6415C118.975 43.0072 141.385 80.1179 147 159.302C147.094 160.622 148.194 161.63 149.496 161.63C149.556 161.63 149.616 161.628 149.676 161.623C151.056 161.525 152.096 160.327 151.998 158.947Z" fill="#E0E0E0"/>
<path d="M79.8916 46.8525C75.5581 46.8525 72.0322 50.3784 72.0322 54.7119C72.0322 59.0453 75.5581 62.5712 79.8916 62.5712C84.225 62.5712 87.7509 59.0453 87.7509 54.7119C87.7509 50.3781 84.225 46.8525 79.8916 46.8525ZM79.8912 57.5614C78.3202 57.5614 77.0417 56.2829 77.0417 54.7119C77.0417 53.1405 78.3202 51.8623 79.8912 51.8623C81.4623 51.8623 82.7408 53.1408 82.7408 54.7119C82.7408 56.2829 81.4623 57.5614 79.8912 57.5614Z" fill="#FFE924"/>
<path d="M195 4C186.177 4 179 11.1772 179 20C179 28.8228 186.178 36 195 36C203.823 36 211 28.822 211 20C211 11.178 203.823 4 195 4ZM195 23.7066C192.955 23.7066 191.293 22.043 191.293 19.9992C191.293 17.9553 192.956 16.2917 195 16.2917C197.045 16.2917 198.707 17.9545 198.707 19.9992C198.707 22.0438 197.045 23.7066 195 23.7066Z" fill="#FFE924"/>
<path d="M147 25C139.832 25 134 31.0564 134 38.5C134 45.9436 139.832 52 147 52C154.168 52 160 45.9436 160 38.5C160 31.0564 154.168 25 147 25ZM147 43.3947C144.401 43.3947 142.287 41.1986 142.287 38.5C142.287 35.8014 144.401 33.6053 147 33.6053C149.599 33.6053 151.713 35.8014 151.713 38.5C151.713 41.1986 149.599 43.3947 147 43.3947Z" fill="#FFE924"/>
<path d="M85.2451 84.3332H85.0727V84.1609C85.0727 82.7775 83.9512 81.656 82.5679 81.656C81.1845 81.656 80.063 82.7775 80.063 84.1609V84.3332H79.8906C78.5073 84.3332 77.3857 85.4548 77.3857 86.8381C77.3857 88.2215 78.5073 89.343 79.8906 89.343H80.063V89.5157C80.063 90.8994 81.1845 92.0206 82.5679 92.0206C83.9512 92.0206 85.0727 90.8991 85.0727 89.5157V89.343H85.2451C86.6284 89.343 87.75 88.2215 87.75 86.8381C87.75 85.4548 86.6284 84.3332 85.2451 84.3332Z" fill="#FFE924"/>
<path d="M162.886 12.0478H162.713V11.8755C162.713 10.4921 161.592 9.37061 160.208 9.37061C158.825 9.37061 157.704 10.4921 157.704 11.8755V12.0478H157.531C156.148 12.0478 155.026 13.1694 155.026 14.5527C155.026 15.9361 156.148 17.0576 157.531 17.0576H157.704V17.2299C157.704 18.6133 158.825 19.7348 160.208 19.7348C161.592 19.7348 162.713 18.6133 162.713 17.2299V17.0576H162.886C164.269 17.0576 165.391 15.9361 165.391 14.5527C165.391 13.1694 164.269 12.0478 162.886 12.0478Z" fill="#FFE924"/>
<path d="M116.9 26.6005L119.145 24.3558C120.123 23.3775 120.123 21.7914 119.145 20.8135C118.166 19.8353 116.58 19.8353 115.602 20.8135L113.358 23.0582L111.113 20.8135C110.135 19.8353 108.549 19.8353 107.571 20.8135C106.592 21.7918 106.592 23.3779 107.571 24.3558L109.815 26.6005L107.571 28.8452C106.592 29.8231 106.592 31.4092 107.571 32.3874C108.06 32.8764 108.701 33.1212 109.342 33.1212C109.983 33.1212 110.624 32.8767 111.113 32.3874L113.358 30.1427L115.602 32.3874C116.091 32.8764 116.732 33.1212 117.373 33.1212C118.014 33.1212 118.656 32.8767 119.145 32.3874C120.123 31.4092 120.123 29.8231 119.145 28.8452L116.9 26.6005Z" fill="black"/>
<path d="M225.423 51.9772L229.673 51.0612C231.525 50.662 232.703 48.8368 232.304 46.9849C231.905 45.1329 230.08 43.9549 228.228 44.3541L223.977 45.2702L223.061 41.0199C222.662 39.1677 220.837 37.9897 218.985 38.3892C217.133 38.7884 215.955 40.6136 216.354 42.4655L217.27 46.7157L213.02 47.6317C211.168 48.031 209.99 49.8562 210.389 51.708C210.589 52.6342 211.145 53.3918 211.882 53.8678C212.62 54.3438 213.54 54.5387 214.466 54.3388L218.716 53.4228L219.632 57.673C219.831 58.5988 220.388 59.3568 221.125 59.8328C221.863 60.3088 222.782 60.5037 223.708 60.3037C225.56 59.9045 226.738 58.0793 226.339 56.2274L225.423 51.9772Z" fill="black"/>
<path d="M213.754 89.688H213.582V89.5156C213.582 88.1323 212.46 87.0107 211.077 87.0107C209.693 87.0107 208.572 88.1323 208.572 89.5156V89.688H208.399C207.016 89.688 205.895 90.8095 205.895 92.1929C205.895 93.5762 207.016 94.6977 208.399 94.6977H208.572V94.8701C208.572 96.2534 209.693 97.375 211.077 97.375C212.46 97.375 213.582 96.2534 213.582 94.8701V94.6977H213.754C215.137 94.6977 216.259 93.5762 216.259 92.1929C216.259 90.8095 215.137 89.688 213.754 89.688Z" fill="#FFE924"/>
<path d="M223.596 107.076C222.946 105.855 221.428 105.393 220.207 106.043C207.834 112.634 189.675 124.109 173.434 141.343C172.485 142.35 172.532 143.935 173.539 144.884C174.023 145.34 174.64 145.566 175.256 145.566C175.922 145.566 176.587 145.302 177.08 144.779C192.854 128.039 210.52 116.879 222.563 110.465C223.784 109.814 224.246 108.297 223.596 107.076Z" fill="#828282"/>
<path d="M234.818 101.968C234.303 100.684 232.844 100.062 231.56 100.578C231.519 100.594 230.533 100.991 228.789 101.786C227.53 102.36 226.974 103.845 227.547 105.104C227.967 106.027 228.877 106.572 229.828 106.572C230.176 106.572 230.528 106.499 230.865 106.346C232.473 105.613 233.396 105.24 233.428 105.227C234.712 104.711 235.334 103.252 234.818 101.968Z" fill="black"/>
</g>
<defs>
<clipPath id="clip0">
<rect width="286" height="171" fill="white"/>
</clipPath>
</defs>
</svg>
