<svg width="32" height="32" viewBox="0 0 32 32" fill="none" xmlns="http://www.w3.org/2000/svg">
<path fill-rule="evenodd" clip-rule="evenodd" d="M14.5 20C17.5376 20 20 17.5376 20 14.5C20 11.4624 17.5376 9 14.5 9C11.4624 9 9 11.4624 9 14.5C9 17.5376 11.4624 20 14.5 20ZM14.5 22C18.6421 22 22 18.6421 22 14.5C22 10.3579 18.6421 7 14.5 7C10.3579 7 7 10.3579 7 14.5C7 18.6421 10.3579 22 14.5 22Z" fill="#171717" fill-opacity="0.97"/>
<path fill-rule="evenodd" clip-rule="evenodd" d="M22.2 26.6L17.7 20.6L19.3 19.4L23.8 25.4L22.2 26.6Z" fill="#171717" fill-opacity="0.97"/>
</svg>
