<svg width="24" height="24" viewBox="0 0 24 24" fill="none" xmlns="http://www.w3.org/2000/svg">
<g clip-path="url(#clip0)">
<path d="M18.3897 3.97886C18.4002 3.97962 18.4106 3.98038 18.4212 3.98038C18.4393 3.98038 18.4573 3.97886 18.475 3.97639C18.9475 3.98607 19.3257 4.37149 19.3263 4.84406C19.3263 5.05879 19.5004 5.2329 19.7151 5.2329C19.9299 5.2329 20.104 5.05879 20.104 4.84406C20.103 4.07113 19.565 3.40244 18.8101 3.23612V2.86247C18.8101 2.64774 18.636 2.47363 18.4212 2.47363C18.2065 2.47363 18.0324 2.64774 18.0324 2.86247V3.25378C17.2342 3.46718 16.7178 4.23935 16.8254 5.0586C16.9331 5.87786 17.6314 6.49035 18.4577 6.49035C18.9375 6.49035 19.3263 6.87938 19.3263 7.35916C19.3263 7.83875 18.9375 8.22778 18.4577 8.22778C17.9779 8.22778 17.5891 7.83875 17.5891 7.35916C17.5891 7.14443 17.415 6.97032 17.2002 6.97032C16.9855 6.97032 16.8114 7.14443 16.8114 7.35916C16.8123 8.10418 17.3128 8.75597 18.0324 8.94944V9.37549C18.0324 9.59023 18.2065 9.76433 18.4212 9.76433C18.636 9.76433 18.8101 9.59023 18.8101 9.37549V8.96729C19.6312 8.78749 20.185 8.01779 20.0945 7.18202C20.0041 6.34625 19.2984 5.71287 18.4577 5.71306C17.9912 5.71325 17.6079 5.34491 17.5894 4.8788C17.5712 4.41269 17.9245 4.01531 18.3897 3.97905V3.97886Z" fill="black"/>
<path d="M18.4798 0.572754C16.0878 0.572754 14.0464 2.13361 13.2816 4.22361H3.63073C3.41695 4.22361 3.24341 4.41632 3.24189 4.62991L3.15 18.2703H0.39909C0.184356 18.2703 0 18.4258 0 18.641V20.3719C0.00493639 22.0015 1.2884 23.3402 2.91628 23.4139V23.4224H14.9216V23.411C15.0188 23.4147 15.0589 23.4224 15.1204 23.4224H15.1288C16.8136 23.4198 18.1781 22.0532 18.1781 20.3683V11.6164C18.2754 11.6218 18.3783 11.6246 18.4789 11.6246C21.5229 11.6246 24.0001 9.14274 24.0001 6.09849C24.0001 3.05444 21.5241 0.572754 18.4798 0.572754ZM3.06418 22.6448H3.06171C1.80388 22.6431 0.783371 21.626 0.777675 20.3679V19.048H12.054V20.3624C12.0545 21.1739 12.3786 21.9518 12.9543 22.5238C12.9951 22.5646 13.0458 22.5962 13.0885 22.6448H3.06418ZM17.4005 20.3679C17.4007 21.6237 16.384 22.6423 15.1284 22.6448H15.121C13.8603 22.6425 12.8379 21.6233 12.8316 20.3628V18.641C12.8349 18.5415 12.7969 18.4452 12.7264 18.375C12.656 18.3047 12.5598 18.2669 12.4605 18.2703H3.92768L4.01691 5.00128H13.0657C12.9968 5.35727 12.9611 5.71877 12.9592 6.08122C12.9585 6.84769 13.1183 7.60562 13.4286 8.3064H9.75587C9.54095 8.3064 9.36703 8.4805 9.36703 8.69523C9.36703 8.90997 9.54095 9.08407 9.75587 9.08407H13.8504C14.6526 10.3455 15.9349 11.225 17.4005 11.5192V20.3679ZM18.4798 10.8471C15.8605 10.8471 13.7369 8.72371 13.7371 6.10419C13.7371 3.48467 15.8605 1.36125 18.48 1.36125C21.0994 1.36125 23.2228 3.48485 23.2228 6.10419C23.2199 8.72238 21.0982 10.8443 18.4798 10.8471Z" fill="black"/>
<path d="M7.25993 10.894C6.57358 10.894 6.01538 11.4346 6.01538 12.0991C6.01538 12.7636 6.57358 13.3042 7.25993 13.3042C7.94628 13.3042 8.50466 12.7636 8.50466 12.0991C8.50466 11.4346 7.94628 10.894 7.25993 10.894ZM7.25993 12.5265C7.00228 12.5265 6.79306 12.3347 6.79306 12.0991C6.79306 11.8633 7.00247 11.6717 7.25993 11.6717C7.51738 11.6717 7.72699 11.8635 7.72699 12.0991C7.72699 12.3347 7.51738 12.5265 7.25993 12.5265Z" fill="black"/>
<path d="M9.36694 12.0973C9.36694 12.3121 9.54086 12.4862 9.75578 12.4862H14.9398C15.1545 12.4862 15.3286 12.3121 15.3286 12.0973C15.3286 11.8826 15.1545 11.7085 14.9398 11.7085H9.75578C9.54086 11.7085 9.36694 11.8826 9.36694 12.0973Z" fill="black"/>
<path d="M7.25993 7.51367C6.57358 7.51367 6.01538 8.0544 6.01538 8.71892C6.01538 9.38343 6.57358 9.92397 7.25993 9.92397C7.94628 9.92397 8.50466 9.38343 8.50466 8.71892C8.50466 8.0544 7.94628 7.51367 7.25993 7.51367ZM7.25993 9.1463C7.00228 9.1463 6.79306 8.95453 6.79306 8.71892C6.79306 8.4833 7.00247 8.29135 7.25993 8.29135C7.51738 8.29135 7.72699 8.48311 7.72699 8.71892C7.72699 8.95453 7.51738 9.14648 7.25993 9.14648V9.1463Z" fill="black"/>
<path d="M7.25993 14.2739C6.57358 14.2739 6.01538 14.8145 6.01538 15.479C6.01538 16.1435 6.57358 16.684 7.25993 16.684C7.94628 16.684 8.50466 16.1435 8.50466 15.479C8.50466 14.8145 7.94628 14.2739 7.25993 14.2739ZM7.25993 15.9064C7.00228 15.9064 6.79306 15.7148 6.79306 15.479C6.79306 15.2434 7.00247 15.0516 7.25993 15.0516C7.51738 15.0516 7.72699 15.2434 7.72699 15.479C7.72699 15.7146 7.51738 15.9064 7.25993 15.9064Z" fill="black"/>
<path d="M14.9398 15.1108H9.75578C9.54086 15.1108 9.36694 15.2849 9.36694 15.4997C9.36694 15.7144 9.54086 15.8885 9.75578 15.8885H14.9398C15.1545 15.8885 15.3286 15.7144 15.3286 15.4997C15.3286 15.2849 15.1545 15.1108 14.9398 15.1108Z" fill="black"/>
</g>
<defs>
<clipPath id="clip0">
<rect width="24" height="24" fill="white"/>
</clipPath>
</defs>
</svg>
