<svg width="19" height="19" viewBox="0 0 19 19" fill="none" xmlns="http://www.w3.org/2000/svg">
<path d="M3.33614 5.21158C3.3572 5.16077 3.38777 5.11493 3.42577 5.07651L5.90361 2.59866C6.06511 2.43716 6.32616 2.43716 6.48766 2.59866C6.64916 2.76016 6.64916 3.02121 6.48766 3.18271L4.71446 4.95632H13.6304C13.8584 4.95632 14.0435 5.14095 14.0435 5.36936V8.67371C14.0435 8.90212 13.8584 9.08675 13.6304 9.08675C13.4024 9.08675 13.2174 8.90212 13.2174 8.67371V5.7824H4.71446L6.48766 7.5556C6.64916 7.7171 6.64916 7.97814 6.48766 8.13964C6.40711 8.22019 6.30137 8.26066 6.19563 8.26066C6.0899 8.26066 5.98416 8.22019 5.90361 8.13964L3.42577 5.6618C3.38735 5.6238 3.3572 5.57795 3.33614 5.52714C3.29442 5.42636 3.29442 5.31236 3.33614 5.21158Z" fill="black"/>
<path d="M5.3695 9.91309C5.59791 9.91309 5.78255 10.0977 5.78255 10.3261V13.2174H14.2855L12.5123 11.4442C12.3508 11.2827 12.3508 11.0217 12.5123 10.8602C12.6738 10.6987 12.9348 10.6987 13.0963 10.8602L15.5741 13.338C15.6126 13.376 15.6427 13.4219 15.6638 13.4727C15.7055 13.5735 15.7055 13.6875 15.6638 13.7883C15.6427 13.8391 15.6126 13.8845 15.5741 13.9229L13.0963 16.4008C13.0158 16.4813 12.91 16.5218 12.8043 16.5218C12.6985 16.5218 12.5928 16.4813 12.5123 16.4008C12.3508 16.2393 12.3508 15.9782 12.5123 15.8167L14.2855 14.0435H5.3695C5.14109 14.0435 4.95646 13.8589 4.95646 13.6305V10.3261C4.95646 10.0977 5.14109 9.91309 5.3695 9.91309Z" fill="black"/>
<path d="M2.06522 0H16.9348C18.0735 0 19 0.926457 19 2.06522V16.9348C19 18.0735 18.0735 19 16.9348 19H2.06522C0.926456 19 0 18.0735 0 16.9344V2.06522C0 0.926457 0.926456 0 2.06522 0ZM0.826088 16.9344C0.826088 17.6175 1.38204 18.1739 2.06522 18.1739H16.9348C17.618 18.1739 18.1739 17.618 18.1739 16.9348V2.06522C18.1739 1.38204 17.618 0.826087 16.9348 0.826087H2.06522C1.38204 0.826087 0.826088 1.38204 0.826088 2.06522V16.9344Z" fill="black"/>
</svg>
