<svg width="24" height="24" viewBox="0 0 24 24" fill="none" xmlns="http://www.w3.org/2000/svg">
<g clip-path="url(#clip0)">
<path d="M23.0498 5.29554L12.1528 0.0349453C12.0562 -0.0116484 11.9437 -0.0116484 11.8472 0.0349453L0.950168 5.29554C0.828668 5.35418 0.751465 5.47723 0.751465 5.61213V18.3879C0.751465 18.5228 0.828668 18.6458 0.950168 18.7045L11.8471 23.9651C11.8954 23.9884 11.9477 24 12 24C12.0522 24 12.1045 23.9884 12.1528 23.9651L23.0498 18.7045C23.1713 18.6458 23.2485 18.5228 23.2485 18.3879V5.61218C23.2485 5.47718 23.1712 5.35423 23.0498 5.29554ZM12 0.741961L22.0883 5.61213L19.1639 7.02391C19.1454 7.0098 19.1258 6.99677 19.1043 6.98641L9.08457 2.14938L12 0.741961ZM8.29061 2.54688L18.3642 7.40998L16.301 8.40602L6.23157 3.5449L8.29061 2.54688ZM18.5999 8.07691V11.7588L16.6727 12.6891V9.00729L18.5999 8.07691ZM22.5453 18.1673L12.3515 23.0883V11.0934L14.7831 9.91952C14.9579 9.8351 15.0312 9.62496 14.9468 9.45007C14.8624 9.27527 14.6522 9.20187 14.4774 9.28634L12 10.4824L11.0252 10.0117C10.8503 9.92721 10.6401 10.0006 10.5557 10.1755C10.4713 10.3503 10.5446 10.5605 10.7194 10.6449L11.6484 11.0934V23.0883L1.45459 18.1672V6.17224L9.21709 9.91966C9.26636 9.94348 9.31843 9.95473 9.36967 9.95473C9.50035 9.95473 9.62589 9.88151 9.6865 9.75593C9.77092 9.58109 9.69761 9.3709 9.52276 9.28648L1.91167 5.61213L5.40409 3.92613L15.9647 9.0244C15.9663 9.02656 15.968 9.02848 15.9696 9.03059V13.2493C15.9696 13.3703 16.0318 13.4827 16.1343 13.5471C16.1912 13.5828 16.2561 13.6009 16.3212 13.6009C16.3734 13.6009 16.4256 13.5893 16.474 13.5659L19.1043 12.2961C19.2258 12.2374 19.303 12.1144 19.303 11.9795V7.73754L22.5453 6.17229V18.1673Z" fill="black"/>
<path d="M4.35584 16.8037L2.7567 16.0317C2.58176 15.9472 2.37167 16.0206 2.28725 16.1954C2.20283 16.3702 2.27614 16.5804 2.45098 16.6649L4.05012 17.4368C4.09939 17.4607 4.15147 17.4719 4.2027 17.4719C4.33339 17.4719 4.45892 17.3987 4.51953 17.2731C4.604 17.0982 4.53069 16.8881 4.35584 16.8037Z" fill="black"/>
<path d="M5.82779 15.8456L2.75911 14.3642C2.58422 14.2797 2.37408 14.353 2.28966 14.5279C2.20528 14.7028 2.2786 14.913 2.45344 14.9974L5.52211 16.4788C5.57138 16.5026 5.62346 16.5139 5.67469 16.5139C5.80538 16.5139 5.93091 16.4407 5.99152 16.3151C6.07594 16.1402 6.00263 15.93 5.82779 15.8456Z" fill="black"/>
</g>
<defs>
<clipPath id="clip0">
<rect width="24" height="24" fill="white"/>
</clipPath>
</defs>
</svg>
