<svg width="318" height="76" viewBox="0 0 318 76" fill="none" xmlns="http://www.w3.org/2000/svg">
<path fill-rule="evenodd" clip-rule="evenodd" d="M97.5922 75.0912L105.226 75.0244C105.226 72.1017 105.444 52.542 105.118 50.6936C104.845 49.1491 95.453 18.945 94.2949 15.1561L89.851 0.685466C86.9753 0.405581 76.0807 0.0575856 74.6001 1.32258C73.1116 2.59416 73.6238 5.45235 74.7987 6.58947C76.5944 8.32636 76.8304 8.15764 77.6856 10.855C81.9239 24.222 86.4831 41.0108 90.8716 53.6238C92.1246 57.225 92.9139 60.8556 94.1115 64.405C94.866 66.6406 96.5516 73.6123 97.5922 75.0912Z" fill="#E3E3E3"/>
<path fill-rule="evenodd" clip-rule="evenodd" d="M191.624 12.784L195.647 47.2238C195.862 48.5863 196.049 48.2713 195.607 49.5319L189.64 49.8192L189.057 56.5647L196.725 56.6508C196.881 59.6685 197.977 63.4353 197.701 66.5013C197.494 68.805 196.45 68.4522 195.828 70.2695L196.661 74.5684C198.107 75.2578 206.877 74.8066 209.329 74.8189C211.897 74.8321 213.366 75.014 213.775 72.8975C214.231 70.5397 213.102 69.9905 212.164 68.5959C210.561 66.2158 209.527 53.0215 208.984 49.1997C208.073 42.7838 207.482 35.6917 206.461 29.3202C206.034 26.658 203.976 10.9262 204.177 9.21265C203.656 8.76843 204.065 9.75572 203.607 8.30707C203.346 7.47883 202.956 2.04409 202.487 0.44165L191.71 0.580497L191.624 12.784ZM190.249 20.431C190.236 18.8475 190.246 15.6575 189.102 14.7173L188.521 19.5993C188.542 21.0826 184.247 50.4085 183.959 52.2925C183.172 57.439 182.998 63.6045 180.141 67.5488C178.93 69.2207 176.097 71.5385 178.151 74.0834C179.302 75.5096 185.816 75.0285 188.248 74.695L187.767 68.8534C186.005 66.7694 185.582 66.2342 185.63 62.8712C185.749 54.5215 188.509 43.7742 189.848 34.9654C191.517 23.9839 189.941 25.5639 190.249 20.431ZM167.907 29.6229C170.025 27.6905 171.099 24.6522 171.007 21.319L166.388 13.9123C166.44 16.5877 166.026 16.756 167.128 18.0038C168.964 20.0813 168.764 23.4658 167.465 25.7871C166.648 27.245 167.112 28.3171 167.907 29.6229ZM173.529 43.4231C174.715 41.2381 175.593 39.5847 176.09 37.0802C176.492 35.0511 177.103 30.4213 173.883 30.536C169.944 30.6761 172.194 34.5493 172.383 36.6496C172.453 37.4141 171.187 43.0417 173.529 43.4231Z" fill="#E3E3E3"/>
<path fill-rule="evenodd" clip-rule="evenodd" d="M2.80916 6.45536C2.82445 8.49147 3.13477 9.94714 3.12477 12.1221L3.15006 29.6909C3.11528 41.0296 3.43143 54.0196 3.18536 65.1141C3.06945 70.3577 -1.55035 69.7056 0.544046 74.0344C1.33755 75.6733 3.89299 75.1878 6.26665 75.1948C8.60922 75.2019 10.9523 75.165 13.2917 75.1883C15.9641 75.2146 17.9737 75.6747 18.5296 73.6509C19.0249 71.8476 18.4764 70.091 17.3014 69.0083C15.6796 67.5144 15.9188 66.5891 15.8751 63.987C15.6538 50.7673 15.8345 36.2799 15.8282 22.9995C15.8266 19.0024 15.7918 15.0023 15.8134 11.0078C15.8282 8.29375 15.8398 8.04989 17.4679 6.40527C18.4279 5.43599 19.027 2.91436 18.0348 1.48549C17.1454 0.205119 14.0115 0.637472 11.9534 0.642304C9.61032 0.64758 7.26986 0.652413 4.92675 0.661203C2.0241 0.672187 0.605163 0.29124 0.178901 2.65117C-0.534519 6.60519 2.18163 6.15527 2.80916 6.45536Z" fill="#E3E3E3"/>
<path fill-rule="evenodd" clip-rule="evenodd" d="M136.809 73.4661C138.58 68.8174 133.754 70.0596 133.497 65.392C133.295 61.728 133.419 57.6439 133.457 53.9487C133.613 39.1217 133.477 23.118 133.379 8.22151C133.319 -1.06181 134.319 0.384207 129.038 0.440445C121.696 0.518663 120.729 -0.291122 120.54 1.76476C120.018 7.44468 121.265 65.1046 120.347 67.4044C119.654 69.1382 118.03 68.8478 117.456 70.488C115.318 76.5893 122.731 75.0185 132.054 75.0466C134.449 75.0536 136.103 75.3208 136.809 73.4661Z" fill="#E3E3E3"/>
<path fill-rule="evenodd" clip-rule="evenodd" d="M282.878 66.1697C282.446 68.505 277.741 70.6673 281.247 74.4319L295.32 74.5369C297.687 74.4846 298.983 74.0329 299.225 72.0496C299.501 69.7942 298.83 69.2256 297.282 68.1843C294.671 66.4276 295.729 60.9217 295.704 57.8526C295.548 38.659 295.99 19.3582 295.612 0.156615C294.03 -0.0112369 282.832 -0.0898859 281.615 0.157491C279.71 0.543714 279.628 3.02491 280.127 4.41425C280.767 6.19947 282.067 5.70472 282.678 8.1521C283.204 10.2546 282.938 27.4775 282.93 31.0853C282.922 34.7805 283.261 64.098 282.878 66.1697Z" fill="#E3E3E3"/>
<path fill-rule="evenodd" clip-rule="evenodd" d="M248.88 7.60656C249.806 10.0113 249.271 55.4757 249.4 63.7107C249.515 71.0053 245.924 67.5557 246.464 72.3235C246.841 75.6553 250.172 74.7133 257.161 74.7106C261.375 74.7089 262.028 75.1768 262.157 73.4993C262.283 71.8529 262.132 69.5997 262.122 67.8901C261.994 45.6761 262.634 22.0421 262.028 0.235446C260.795 0.0175074 249.725 -0.041369 248.48 0.158116C246.57 0.464358 246.108 2.19685 246.432 4.01767C246.805 6.12011 248.149 5.71061 248.88 7.60656Z" fill="#E3E3E3"/>
<path fill-rule="evenodd" clip-rule="evenodd" d="M44.7229 53.6697L44.7203 65.392C44.5617 69.5767 42.8867 68.4624 41.9905 70.8522C41.6459 71.7719 41.7428 73.4218 42.1954 74.2039C42.8014 75.2518 44.0991 75.2035 45.7304 75.2004L57.2272 75.1802C57.2035 52.4833 57.5281 29.1775 57.3278 6.54834L57.1909 0.614014L45.7404 0.621484C43.8162 0.624566 40.9504 0.287111 41.7676 4.56145C42.2492 7.08087 44.1297 6.16828 44.6018 9.3872C45.0191 12.2318 44.7061 48.7833 44.7229 53.6697Z" fill="#E3E3E3"/>
<path fill-rule="evenodd" clip-rule="evenodd" d="M209.586 1.39047C207.115 3.68054 210.97 7.49089 211.293 8.51905L221.036 70.4006C222.243 71.4653 221.135 71.1964 222.847 74.1807L228.726 73.9157C228.786 73.8392 228.861 73.6363 228.884 73.6758C228.906 73.7149 228.999 73.5031 229.027 73.4302C229.478 72.2482 229.232 72.3686 229.338 71.362L230.039 66.4866C230.209 64.8486 229.881 65.5762 231.066 64.0195C231.066 65.2177 230.863 65.7761 230.602 66.8842C230.337 65.8297 232.275 56.6246 231.852 54.0538C231.156 49.8159 230.552 45.4177 229.852 40.9443C229.181 36.6577 228.373 32.4198 227.82 28.0185C227.325 24.0746 226.633 18.7238 225.904 15.0127L225.899 15.0101C225.677 12.4911 224.637 9.23657 225.781 7.18332C227.526 4.05095 227.961 6.24743 226.463 0.47128C223.929 -0.0682739 216.317 0.133393 212.993 0.210724C211.22 0.252465 210.244 0.168107 209.614 1.3896L209.586 1.39047Z" fill="#E3E3E3"/>
<path fill-rule="evenodd" clip-rule="evenodd" d="M313.833 73.8738C316.266 71.4392 319.896 65.0883 316.818 61.4344C313.904 62.833 315.712 63.5105 314.03 63.8075L312.918 48.375C312.503 41.1661 309.778 40.5329 305.016 38.0574C306.83 36.0705 307.786 35.9422 309.312 34.092C310.543 32.5994 311.487 31.3436 312.175 29.2636C313.462 25.3724 314.09 20.613 313.56 16.151C312.607 8.12611 310.389 -0.231414 297.863 0.106472C297.881 4.98803 297.036 5.07195 299.056 7.07246C301.599 9.59233 301.009 14.256 301.028 17.9819C301.052 22.3648 301.507 28.6963 300.409 32.7606C300.123 33.8239 299.858 34.9193 298.886 35.4334L297.904 35.7906L297.908 41.4033L301.204 55.3441C301.344 60.1857 301.213 66.5734 302.64 70.6914C304.276 75.4117 309.56 78.1482 313.832 73.8738H313.833Z" fill="#E3E3E3"/>
<path fill-rule="evenodd" clip-rule="evenodd" d="M30.3847 38.9432C29.7482 35.3556 28.961 31.5048 28.1865 27.8856C26.8777 21.7681 26.8071 22.9105 28.9415 17.3883C30.1876 14.1645 31.2836 10.7299 33.9523 8.44198C35.5862 7.04165 36.7849 6.91292 36.8549 4.04461C36.9255 1.16753 36.3481 0.637628 33.0408 0.630157C30.6755 0.624893 27.6048 0.494826 25.3191 0.634558C22.4175 0.811631 22.3153 3.08544 22.8222 4.87593C23.3285 6.66598 27.8008 8.37474 25.9066 14.5679C24.7986 18.1919 24.1257 21.504 22.5819 24.8978C19.4738 31.7289 16.5738 37.5648 18.2519 46.3059C18.9922 50.1628 23.3875 65.6265 21.3543 68.794C20.3974 70.2836 19.2841 72.484 20.5665 74.3878C21.427 75.6656 25.1194 75.2271 27.3419 75.2126C29.9094 75.1954 32.4923 75.2358 35.053 75.2126C40.0463 75.1677 39.1575 71.6017 37.2543 69.1064C35.9803 67.4355 35.3485 63.2622 34.9407 61.2687C34.2226 57.7567 33.193 53.6871 32.6767 50.0688C32.1403 46.3059 31.0517 42.7021 30.3847 38.9432Z" fill="#E3E3E3"/>
<path fill-rule="evenodd" clip-rule="evenodd" d="M168.846 60.4163C170.633 60.4163 172.42 60.4009 174.207 60.4097C176.113 60.4189 177.491 60.7287 177.757 58.9777C178.151 56.3863 176.544 57.8577 174.771 52.9362C173.178 48.5134 171.519 44.3906 169.739 40.0877C168.011 35.9105 166.528 31.3238 164.866 27.1259C161.044 17.4713 163.242 19.8238 164.242 17.2837C164.446 16.7661 164.527 13.8934 164.208 13.4417C163.489 12.421 159.76 13.0041 157.186 15.2318C150.961 20.6177 152.905 29.1493 155.49 35.2523C156.273 37.1012 165.254 59.407 165.835 60.2977L168.846 60.4163Z" fill="#E3E3E3"/>
<path fill-rule="evenodd" clip-rule="evenodd" d="M153.862 36.533L153.165 36.0075C153.107 35.9636 152.87 35.7759 152.789 35.7118L151.588 35.8274C149.173 36.7588 146.977 40.7471 146.12 43.0904C144.932 46.3339 144.988 50.661 146.324 53.7845C150.554 63.6707 159.305 62.2572 162.829 58.6885L161.614 55.7794C160.603 55.0175 159.873 55.4463 159.109 53.9827L154.389 42.325C153.07 39.2598 155.004 38.4285 153.862 36.533Z" fill="#E3E3E3"/>
<path fill-rule="evenodd" clip-rule="evenodd" d="M77.9877 20.2754C77.4877 30.7411 77.9924 41.9946 77.9919 52.5548C77.9919 57.5541 78.6237 63.3087 76.3053 67.3849C75.1925 69.3415 73.3484 71.0001 73.9417 73.3785C74.5713 75.9032 78.523 75.1901 81.2091 75.1844C83.0353 75.1804 84.2862 75.3364 84.9769 74.0732C86.7378 70.8538 82.5991 68.1248 81.7429 65.2895C79.3613 57.4047 82.6244 33.9104 79.9973 26.2242C79.2459 24.0264 78.9135 22.0975 77.9877 20.2754Z" fill="#E3E3E3"/>
<path fill-rule="evenodd" clip-rule="evenodd" d="M232.941 45.6917C233.741 44.8582 234.966 34.1074 235.156 33.0889C236.239 27.2973 237.132 12.4962 240.036 8.174C241.006 6.7315 242.896 5.71872 243.096 3.47171C243.373 0.352528 241.813 0.0959175 238.433 0.128437C236.589 0.146016 229.493 -1.00693 231.578 4.69188C232.056 5.9973 232.53 6.05969 233.377 6.84883C236.087 9.37572 234.695 16.198 234.236 19.6529C233.833 22.6878 231.392 37.0191 231.817 39.3527C232.195 41.4262 232.232 44.0005 232.941 45.6917Z" fill="#E3E3E3"/>
<path fill-rule="evenodd" clip-rule="evenodd" d="M105.129 41.5532C105.497 33.2243 104.996 24.669 105.173 16.3075C105.389 6.1481 109.174 7.71362 109.501 4.05663C109.905 -0.465508 106.619 0.514756 101.931 0.50069C99.0069 0.491469 97.9726 0.759495 97.8752 3.20422C97.6744 8.2611 102.179 4.2715 102.187 18.8169C102.189 22.9497 102.037 27.2706 102.19 31.3793C102.314 34.6773 104.469 38.4789 105.129 41.5532Z" fill="#E3E3E3"/>
<path fill-rule="evenodd" clip-rule="evenodd" d="M59.9629 69.1267C59.9102 70.893 59.5683 73.6559 60.2674 75.014L71.8623 75.1695L71.9265 62.8712C71.9292 60.7973 72.7854 52.8844 70.4955 51.963L68.3036 56.8665C67.7836 58.6614 67.4358 60.2116 66.7398 61.9498C65.4958 65.0562 63.5642 68.3762 59.9629 69.1267Z" fill="#E3E3E3"/>
<path fill-rule="evenodd" clip-rule="evenodd" d="M264.695 74.5599L276.181 74.5585L276.274 56.4546C276.272 55.3742 276.235 54.5152 276.087 53.5815C275.769 51.5818 275.465 51.8674 274.89 51.5691L273.83 52.5516C273.55 52.8982 271.671 60.004 271.158 61.3906C269.82 65.0103 268.149 67.0728 264.638 68.5372L264.695 74.5599Z" fill="#E3E3E3"/>
<path fill-rule="evenodd" clip-rule="evenodd" d="M59.8001 4.59699L59.9219 7.10675C61.4883 8.0176 64.8636 8.46753 66.4922 13.5037L69.4918 23.1091C71.7338 23.1961 71.463 21.5137 71.4677 18.8185L71.3054 0.566514C56.9259 0.0300306 59.8065 0.54938 59.8001 4.59699Z" fill="#E3E3E3"/>
<path fill-rule="evenodd" clip-rule="evenodd" d="M264.316 6.46438C267.285 8.21884 269.01 8.23159 270.818 13.0169L274.222 22.5032C276.125 22.124 275.826 20.7808 275.826 17.982L275.779 0.191284L264.346 0.250604L264.316 6.46438Z" fill="#E3E3E3"/>
<path fill-rule="evenodd" clip-rule="evenodd" d="M111.642 26.2976L113.315 26.2418C114.782 23.1991 114.832 16.8913 115.601 13.2057C116.249 10.0971 116.713 9.85409 117.944 7.63433L118.2 0.48291L110.809 0.572544C110.337 4.4031 110.753 9.78643 110.743 13.798C110.735 16.7981 110.062 24.4425 111.642 26.2976Z" fill="#E3E3E3"/>
<path fill-rule="evenodd" clip-rule="evenodd" d="M143.019 0.512807L135.814 0.48645C134.563 8.4516 136.925 6.9388 138.318 12.7954C138.537 13.7159 139.793 31.0021 142.791 25.5327C143.636 23.9904 143.194 1.47725 143.019 0.512807Z" fill="#E3E3E3"/>
<path fill-rule="evenodd" clip-rule="evenodd" d="M63.6591 23.6025C63.9284 25.6166 62.5447 30.1972 61.5895 31.7491C60.6363 33.2975 59.8607 33.1314 59.8249 35.2462C59.8228 45.838 60.9419 36.7686 62.9078 45.7488C63.8983 50.274 63.0432 50.0332 65.478 51.8404C66.9575 50.836 66.5528 47.1333 66.547 45.026C66.5296 38.8236 66.8479 27.7753 65.9595 22.5866L64.6982 22.3999C64.5801 22.5792 64.3478 22.9641 64.2303 23.0998C63.9189 23.4601 63.97 23.3569 63.6591 23.6025Z" fill="#E3E3E3"/>
<path fill-rule="evenodd" clip-rule="evenodd" d="M269.873 51.2473C271.938 49.3909 270.929 39.7081 270.924 36.3829C270.912 27.7714 271.21 30.0874 269.538 21.7013C267.273 22.341 267.645 27.0613 266.964 28.9147C265.574 32.6934 264.463 31.4662 264.469 36.3829C264.478 42.899 265.622 38.8926 266.896 43.924L268.241 50.0469C268.583 51.0183 268.609 51.1348 269.873 51.2473Z" fill="#E3E3E3"/>
<path fill-rule="evenodd" clip-rule="evenodd" d="M221.035 70.4011L221.621 74.6403C222.911 74.9676 228.151 74.9553 229.507 74.6596L230.602 66.8847C230.863 65.7766 231.719 59.623 231.719 58.4248C230.534 59.9815 230.209 64.8491 230.038 66.4871L228.989 70.1274C228.884 71.134 229.129 71.0136 228.679 72.1956C228.651 72.2685 228.558 72.4803 228.535 72.4412C228.513 72.4016 228.437 72.6046 228.378 72.6811L223.5 72.6552C221.788 69.6709 222.243 71.4657 221.035 70.4011Z" fill="#E3E3E3"/>
<path fill-rule="evenodd" clip-rule="evenodd" d="M151.588 35.8273L152.789 35.7117C152.87 35.7759 153.107 35.9635 153.165 36.0074L153.862 36.5329C153.67 35.7196 153.448 35.2442 153.116 34.7196C152.385 35.0667 152.072 35.1309 151.588 35.8273Z" fill="#E3E3E3"/>
<path fill-rule="evenodd" clip-rule="evenodd" d="M101.15 60.2816C101.733 61.5365 102.299 60.2715 102.472 59.8044C102.453 59.7978 102.668 59.2113 101.438 59.6946C101.248 59.7688 101.045 60.0566 101.15 60.2816Z" fill="#E3E3E3"/>
<path fill-rule="evenodd" clip-rule="evenodd" d="M63.6591 23.6029C63.97 23.3572 63.9189 23.4605 64.2303 23.1002C64.3478 22.9644 64.5802 22.5795 64.6982 22.4003L65.9596 22.587L65.4116 21.8387L63.8594 22.4512L63.6591 23.6029Z" fill="#E3E3E3"/>
<path fill-rule="evenodd" clip-rule="evenodd" d="M97.5922 75.0912L105.226 75.0244C105.226 72.1017 105.444 52.542 105.118 50.6936C104.845 49.1491 95.453 18.945 94.2949 15.1561L89.851 0.685466C86.9753 0.405581 76.0807 0.0575856 74.6001 1.32258C73.1116 2.59416 73.6238 5.45235 74.7987 6.58947C76.5944 8.32636 76.8304 8.15764 77.6856 10.855C81.9239 24.222 86.4831 41.0108 90.8716 53.6238C92.1246 57.225 92.9139 60.8556 94.1115 64.405C94.866 66.6406 96.5516 73.6123 97.5922 75.0912Z" fill="#E3E3E3"/>
<path fill-rule="evenodd" clip-rule="evenodd" d="M191.624 12.784L195.647 47.2238C195.862 48.5863 196.049 48.2713 195.607 49.5319L189.64 49.8192L189.057 56.5647L196.725 56.6508C196.881 59.6685 197.977 63.4353 197.701 66.5013C197.494 68.805 196.45 68.4522 195.828 70.2695L196.661 74.5684C198.107 75.2578 206.877 74.8066 209.329 74.8189C211.897 74.8321 213.366 75.014 213.775 72.8975C214.231 70.5397 213.102 69.9905 212.164 68.5959C210.561 66.2158 209.527 53.0215 208.984 49.1997C208.073 42.7838 207.482 35.6917 206.461 29.3202C206.034 26.658 204.234 10.9469 204.177 9.21265C203.593 7.01264 203.141 2.67637 202.487 0.44165L191.71 0.580497L191.624 12.784ZM190.249 20.431C190.236 18.8475 190.246 15.6575 189.102 14.7173L188.521 19.5993C188.542 21.0826 184.247 50.4085 183.959 52.2925C183.172 57.439 182.998 63.6045 180.141 67.5488C178.93 69.2207 176.097 71.5385 178.151 74.0834C179.302 75.5096 185.816 75.0285 188.248 74.695L187.767 68.8534C186.005 66.7694 185.582 66.2342 185.63 62.8712C185.749 54.5215 188.509 43.7742 189.848 34.9654C191.517 23.9839 189.941 25.5639 190.249 20.431ZM167.907 29.6229C170.025 27.6905 171.099 24.6522 171.007 21.319L166.388 13.9123C166.44 16.5877 166.026 16.756 167.128 18.0038C168.964 20.0813 168.764 23.4658 167.465 25.7871C166.648 27.245 167.112 28.3171 167.907 29.6229ZM173.529 43.4231C174.715 41.2381 175.593 39.5847 176.09 37.0802C176.492 35.0511 177.103 30.4213 173.883 30.536C169.944 30.6761 172.194 34.5493 172.383 36.6496C172.453 37.4141 171.187 43.0417 173.529 43.4231Z" fill="#E3E3E3"/>
<path fill-rule="evenodd" clip-rule="evenodd" d="M3.07735 6.53358C3.09263 8.56924 3.13477 9.94714 3.12477 12.1221L3.15006 29.6909C3.11528 41.0296 3.43143 54.0196 3.18536 65.1141C3.06945 70.3577 -1.55035 69.7056 0.544046 74.0344C1.33755 75.6733 3.89299 75.1878 6.26665 75.1948C8.60922 75.2019 10.9523 75.165 13.2917 75.1883C15.9641 75.2146 17.9737 75.6747 18.5296 73.6509C19.0249 71.8476 18.4764 70.091 17.3014 69.0083C15.6796 67.5144 15.9188 66.5891 15.8751 63.987C15.6538 50.7673 15.8345 36.2799 15.8282 22.9995C15.8266 19.0024 15.7918 15.0023 15.8134 11.0078C15.8282 8.29375 15.8398 8.04989 17.4679 6.40527C18.4279 5.43599 19.027 2.91436 18.0348 1.48549C17.1454 0.205119 14.0115 0.637472 11.9534 0.642304C9.61032 0.64758 7.26986 0.652413 4.92675 0.661203C2.0241 0.672187 0.605163 0.29124 0.178901 2.65117C-0.534519 6.60519 2.44982 6.23347 3.07735 6.53358Z" fill="#E3E3E3"/>
<path fill-rule="evenodd" clip-rule="evenodd" d="M136.809 73.4661C138.58 68.8174 133.754 70.0596 133.497 65.392C133.295 61.728 133.419 57.6439 133.457 53.9487C133.613 39.1217 133.477 23.118 133.379 8.22151C133.319 -1.06181 134.319 0.384207 129.038 0.440445C121.696 0.518663 120.729 -0.291122 120.54 1.76476C120.018 7.44468 121.265 65.1046 120.347 67.4044C119.654 69.1382 118.03 68.8478 117.456 70.488C115.318 76.5893 122.731 75.0185 132.054 75.0466C134.449 75.0536 136.103 75.3208 136.809 73.4661Z" fill="#E3E3E3"/>
<path fill-rule="evenodd" clip-rule="evenodd" d="M282.878 66.1697C282.446 68.505 277.741 70.6673 281.247 74.4319L295.32 74.5369C297.687 74.4846 298.983 74.0329 299.225 72.0496C299.501 69.7942 298.83 69.2256 297.282 68.1843C294.671 66.4276 295.729 60.9217 295.704 57.8526C295.548 38.659 295.99 19.3582 295.612 0.156615C294.03 -0.0112369 282.832 -0.0898859 281.615 0.157491C279.71 0.543714 279.628 3.02491 280.127 4.41425C280.767 6.19947 282.067 5.70472 282.678 8.1521C283.204 10.2546 282.938 27.4775 282.93 31.0853C282.922 34.7805 283.261 64.098 282.878 66.1697Z" fill="#E3E3E3"/>
<path fill-rule="evenodd" clip-rule="evenodd" d="M248.88 7.60656C249.806 10.0113 249.271 55.4757 249.4 63.7107C249.515 71.0053 245.924 67.5557 246.464 72.3235C246.841 75.6553 250.172 74.7133 257.161 74.7106C261.375 74.7089 262.028 75.1768 262.157 73.4993C262.283 71.8529 262.132 69.5997 262.122 67.8901C261.994 45.6761 262.634 22.0421 262.028 0.235446C260.795 0.0175074 249.725 -0.041369 248.48 0.158116C246.57 0.464358 246.108 2.19685 246.432 4.01767C246.805 6.12011 248.149 5.71061 248.88 7.60656Z" fill="#E3E3E3"/>
<path fill-rule="evenodd" clip-rule="evenodd" d="M44.7229 53.6697L44.7203 65.392C44.5617 69.5767 42.8867 68.4624 41.9905 70.8522C41.6459 71.7719 41.7428 73.4218 42.1954 74.2039C42.8014 75.2518 44.0991 75.2035 45.7304 75.2004L57.2272 75.1802C57.2035 52.4833 57.5281 29.1775 57.3278 6.54834L57.1909 0.614014L45.7404 0.621484C43.8162 0.624566 40.9504 0.287111 41.7676 4.56145C42.2492 7.08087 44.1297 6.16828 44.6018 9.3872C45.0191 12.2318 44.7061 48.7833 44.7229 53.6697Z" fill="#E3E3E3"/>
<path fill-rule="evenodd" clip-rule="evenodd" d="M209.586 1.39047C207.115 3.68054 210.97 7.49089 211.293 8.51905L221.036 70.4006C222.243 71.4653 221.135 71.1964 222.847 74.1807L228.726 73.9157C228.786 73.8392 228.861 73.6363 228.884 73.6758C228.906 73.7149 228.999 73.5031 229.027 73.4302C229.478 72.2482 229.232 72.3686 229.338 71.362L230.039 66.4866C230.209 64.8486 229.881 65.5762 231.066 64.0195C231.066 65.2177 230.863 65.7761 230.602 66.8842C230.337 65.8297 232.275 56.6246 231.852 54.0538C231.156 49.8159 230.552 45.4177 229.852 40.9443C229.181 36.6577 228.373 32.4198 227.82 28.0185C227.325 24.0746 226.633 18.7238 225.904 15.0127L225.899 15.0101C225.677 12.4911 224.637 9.23657 225.781 7.18332C227.526 4.05095 227.961 6.24743 226.463 0.47128C223.929 -0.0682739 216.317 0.133393 212.993 0.210724C211.22 0.252465 210.244 0.168107 209.614 1.3896L209.586 1.39047Z" fill="#E3E3E3"/>
<path fill-rule="evenodd" clip-rule="evenodd" d="M313.833 73.8738C316.266 71.4392 319.896 65.0883 316.818 61.4344C313.904 62.833 315.712 63.5105 314.03 63.8075L312.918 48.375C312.503 41.1661 309.778 40.5329 305.016 38.0574C306.83 36.0705 307.786 35.9422 309.312 34.092C310.543 32.5994 311.487 31.3436 312.175 29.2636C313.462 25.3724 314.09 20.613 313.56 16.151C312.607 8.12611 310.389 -0.231414 297.863 0.106472C297.881 4.98803 297.036 5.07195 299.056 7.07246C301.599 9.59233 301.009 14.256 301.028 17.9819C301.052 22.3648 301.507 28.6963 300.409 32.7606C300.123 33.8239 299.858 34.9193 298.886 35.4334L297.904 35.7906L297.908 41.4033L301.204 55.3441C301.344 60.1857 301.213 66.5734 302.64 70.6914C304.276 75.4117 309.56 78.1482 313.832 73.8738H313.833Z" fill="#E3E3E3"/>
<path fill-rule="evenodd" clip-rule="evenodd" d="M30.3847 38.9432C29.7482 35.3556 28.961 31.5048 28.1865 27.8856C26.8777 21.7681 26.8071 22.9105 28.9415 17.3883C30.1876 14.1645 31.2836 10.7299 33.9523 8.44198C35.5862 7.04165 36.7849 6.91292 36.8549 4.04461C36.9255 1.16753 36.3481 0.637628 33.0408 0.630157C30.6755 0.624893 27.6048 0.494826 25.3191 0.634558C22.4175 0.811631 22.3153 3.08544 22.8222 4.87593C23.3285 6.66598 27.8008 8.37474 25.9066 14.5679C24.7986 18.1919 24.1257 21.504 22.5819 24.8978C19.4738 31.7289 16.5738 37.5648 18.2519 46.3059C18.9922 50.1628 23.3875 65.6265 21.3543 68.794C20.3974 70.2836 19.2841 72.484 20.5665 74.3878C21.427 75.6656 25.1194 75.2271 27.3419 75.2126C29.9094 75.1954 32.4923 75.2358 35.053 75.2126C40.0463 75.1677 39.1575 71.6017 37.2543 69.1064C35.9803 67.4355 35.3485 63.2622 34.9407 61.2687C34.2226 57.7567 33.193 53.6871 32.6767 50.0688C32.1403 46.3059 31.0517 42.7021 30.3847 38.9432Z" fill="#E3E3E3"/>
<path fill-rule="evenodd" clip-rule="evenodd" d="M168.846 60.4163C170.633 60.4163 172.42 60.4009 174.207 60.4097C176.113 60.4189 177.491 60.7287 177.757 58.9777C178.151 56.3863 176.544 57.8577 174.771 52.9362C173.178 48.5134 171.519 44.3906 169.739 40.0877C168.011 35.9105 166.528 31.3238 164.866 27.1259C161.044 17.4713 163.242 19.8238 164.242 17.2837C164.446 16.7661 164.527 13.8934 164.208 13.4417C163.489 12.421 159.76 13.0041 157.186 15.2318C150.961 20.6177 152.905 29.1493 155.49 35.2523C156.273 37.1012 165.254 59.407 165.835 60.2977L168.846 60.4163Z" fill="#E3E3E3"/>
<path fill-rule="evenodd" clip-rule="evenodd" d="M153.862 36.533L153.165 36.0075C153.107 35.9636 152.87 35.7759 152.789 35.7118L151.588 35.8274C149.173 36.7588 146.977 40.7471 146.12 43.0904C144.932 46.3339 144.988 50.661 146.324 53.7845C150.554 63.6707 159.305 62.2572 162.829 58.6885L161.614 55.7794C160.603 55.0175 159.873 55.4463 159.109 53.9827L154.389 42.325C153.07 39.2598 155.004 38.4285 153.862 36.533Z" fill="#E3E3E3"/>
<path fill-rule="evenodd" clip-rule="evenodd" d="M77.9877 20.2754C77.4877 30.7411 77.9924 41.9946 77.9919 52.5548C77.9919 57.5541 78.6237 63.3087 76.3053 67.3849C75.1925 69.3415 73.3484 71.0001 73.9417 73.3785C74.5713 75.9032 78.523 75.1901 81.2091 75.1844C83.0353 75.1804 84.2862 75.3364 84.9769 74.0732C86.7378 70.8538 82.5991 68.1248 81.7429 65.2895C79.3613 57.4047 82.6244 33.9104 79.9973 26.2242C79.2459 24.0264 78.9135 22.0975 77.9877 20.2754Z" fill="#E3E3E3"/>
<path fill-rule="evenodd" clip-rule="evenodd" d="M232.941 45.6917C233.741 44.8582 234.966 34.1074 235.156 33.0889C236.239 27.2973 237.132 12.4962 240.036 8.174C241.006 6.7315 242.896 5.71872 243.096 3.47171C243.373 0.352528 241.813 0.0959175 238.433 0.128437C236.589 0.146016 229.493 -1.00693 231.578 4.69188C232.056 5.9973 232.53 6.05969 233.377 6.84883C236.087 9.37572 234.695 16.198 234.236 19.6529C233.833 22.6878 231.392 37.0191 231.817 39.3527C232.195 41.4262 232.232 44.0005 232.941 45.6917Z" fill="#E3E3E3"/>
<path fill-rule="evenodd" clip-rule="evenodd" d="M105.129 41.5532C105.497 33.2243 104.996 24.669 105.173 16.3075C105.389 6.1481 109.174 7.71362 109.501 4.05663C109.905 -0.465508 106.619 0.514756 101.931 0.50069C99.0069 0.491469 97.9726 0.759495 97.8752 3.20422C97.6744 8.2611 102.179 4.2715 102.187 18.8169C102.189 22.9497 102.037 27.2706 102.19 31.3793C102.314 34.6773 104.469 38.4789 105.129 41.5532Z" fill="#E3E3E3"/>
<path fill-rule="evenodd" clip-rule="evenodd" d="M59.9629 69.1267C59.9102 70.893 59.5683 73.6559 60.2674 75.014L71.8623 75.1695L71.9265 62.8712C71.9292 60.7973 72.7854 52.8844 70.4955 51.963L68.3036 56.8665C67.7836 58.6614 67.4358 60.2116 66.7398 61.9498C65.4958 65.0562 63.5642 68.3762 59.9629 69.1267Z" fill="#E3E3E3"/>
<path fill-rule="evenodd" clip-rule="evenodd" d="M264.695 74.5599L276.181 74.5585L276.274 56.4546C276.272 55.3742 276.235 54.5152 276.087 53.5815C275.769 51.5818 275.465 51.8674 274.89 51.5691L273.83 52.5516C273.55 52.8982 271.671 60.004 271.158 61.3906C269.82 65.0103 268.149 67.0728 264.638 68.5372L264.695 74.5599Z" fill="#E3E3E3"/>
<path fill-rule="evenodd" clip-rule="evenodd" d="M59.8001 4.59699L59.9219 7.10675C61.4883 8.0176 64.8636 8.46753 66.4922 13.5037L69.4918 23.1091C71.7338 23.1961 71.463 21.5137 71.4677 18.8185L71.3054 0.566514C56.9259 0.0300306 59.8065 0.54938 59.8001 4.59699Z" fill="#E3E3E3"/>
<path fill-rule="evenodd" clip-rule="evenodd" d="M264.316 6.46438C267.285 8.21884 269.01 8.23159 270.818 13.0169L274.222 22.5032C276.125 22.124 275.826 20.7808 275.826 17.982L275.779 0.191284L264.346 0.250604L264.316 6.46438Z" fill="#E3E3E3"/>
<path fill-rule="evenodd" clip-rule="evenodd" d="M111.642 26.2976L113.315 26.2418C114.782 23.1991 114.832 16.8913 115.601 13.2057C116.249 10.0971 116.713 9.85409 117.944 7.63433L118.2 0.48291L110.809 0.572544C110.337 4.4031 110.753 9.78643 110.743 13.798C110.735 16.7981 110.062 24.4425 111.642 26.2976Z" fill="#E3E3E3"/>
<path fill-rule="evenodd" clip-rule="evenodd" d="M143.019 0.512807L135.814 0.48645C134.563 8.4516 136.925 6.9388 138.318 12.7954C138.537 13.7159 139.793 31.0021 142.791 25.5327C143.636 23.9904 143.194 1.47725 143.019 0.512807Z" fill="#E3E3E3"/>
<path fill-rule="evenodd" clip-rule="evenodd" d="M63.6591 23.6025C63.9284 25.6166 62.5447 30.1972 61.5895 31.7491C60.6363 33.2975 59.8607 33.1314 59.8249 35.2462C59.8228 45.838 60.9419 36.7686 62.9078 45.7488C63.8983 50.274 63.0432 50.0332 65.478 51.8404C66.9575 50.836 66.5528 47.1333 66.547 45.026C66.5296 38.8236 66.8479 27.7753 65.9595 22.5866L64.6982 22.3999C64.5801 22.5792 64.3478 22.9641 64.2303 23.0998C63.9189 23.4601 63.97 23.3569 63.6591 23.6025Z" fill="#E3E3E3"/>
<path fill-rule="evenodd" clip-rule="evenodd" d="M269.873 51.2473C271.938 49.3909 270.929 39.7081 270.924 36.3829C270.912 27.7714 271.21 30.0874 269.538 21.7013C267.273 22.341 267.645 27.0613 266.964 28.9147C265.574 32.6934 264.463 31.4662 264.469 36.3829C264.478 42.899 265.622 38.8926 266.896 43.924L268.241 50.0469C268.583 51.0183 268.609 51.1348 269.873 51.2473Z" fill="#E3E3E3"/>
</svg>
