<svg width="28" height="28" viewBox="0 0 28 28" fill="none" xmlns="http://www.w3.org/2000/svg">
<path fill-rule="evenodd" clip-rule="evenodd" d="M26 14C26 20.6274 20.6274 26 14 26C7.37258 26 2 20.6274 2 14C2 7.37258 7.37258 2 14 2C20.6274 2 26 7.37258 26 14ZM19.7838 8.60463L6.56096 13.7029C5.65468 14.0572 5.67068 14.5589 6.40554 14.7921L9.79068 15.8481L17.6433 10.9041C18.0078 10.6618 18.3461 10.7989 18.0695 11.0423L11.7153 16.7829L11.4718 20.2721C11.8261 20.2721 11.9804 20.1178 12.1632 19.9349L13.817 18.3418L17.2455 20.8686C17.8707 21.2229 18.3175 21.0401 18.4844 20.2881L20.7358 9.6812L20.7347 9.68234C20.9335 8.75434 20.3975 8.38292 19.7838 8.60463Z" fill="#FFE924"/>
</svg>
