<svg width="28" height="28" viewBox="0 0 28 28" fill="none" xmlns="http://www.w3.org/2000/svg">
<path d="M25.3041 7.29867C24.8583 5.84514 23.9755 4.69525 22.6805 3.88136C21.0462 2.85303 19.1667 2.48887 17.5438 2.26765C15.2974 1.96192 13.263 1.91862 11.3253 2.13513C9.50747 2.33861 8.13999 2.6626 6.8908 3.18694C4.44442 4.21318 2.9758 5.87384 2.52664 8.123C2.30891 9.21446 2.16205 10.2021 2.0769 11.1428C1.8809 13.3194 2.05862 15.2451 2.62093 17.0305C3.16895 18.7709 4.1267 20.0142 5.54847 20.8307C5.91134 21.0389 6.37478 21.1897 6.82337 21.3347C7.07824 21.4171 7.32568 21.497 7.52911 21.5831C7.71655 21.6624 7.71655 21.6775 7.71483 21.8204C7.69883 23.058 7.71483 25.4824 7.71483 25.4824L7.71826 26H8.73716L8.90345 25.8539C9.01088 25.7595 11.535 23.5338 12.4333 22.638L12.5556 22.5123C12.7105 22.3505 12.7105 22.3505 12.8699 22.3479C14.0836 22.326 15.3243 22.2832 16.5569 22.2222C18.0507 22.1476 19.781 22.0161 21.4102 21.3952C22.9017 20.8265 23.9897 19.9245 24.644 18.7136C25.3264 17.4504 25.7315 16.0825 25.8835 14.5314C26.1498 11.8054 25.9607 9.43932 25.3041 7.29867ZM19.9336 17.9023C19.5599 18.46 19.0004 18.8461 18.3415 19.0975C17.8604 19.2812 17.3689 19.2426 16.8946 19.0589C12.9127 17.5209 9.79148 15.0964 7.72741 11.6118C7.30225 10.8944 7.00623 10.1124 6.66736 9.35376C6.59765 9.19776 6.60222 9.01464 6.57193 8.84455C6.60108 7.61849 7.63083 6.92929 8.67087 6.72008C9.0686 6.63973 9.42004 6.76808 9.71548 7.02529C10.5315 7.7364 11.1767 8.56073 11.663 9.48576C11.8761 9.89114 11.7801 10.2506 11.4173 10.5522C11.3424 10.6148 11.2635 10.6732 11.1824 10.729C10.3561 11.2967 10.2344 11.7255 10.6749 12.5796C11.4253 14.0331 12.6693 15.0088 14.2797 15.614C14.7042 15.7736 15.1037 15.6948 15.4277 15.3808C15.4711 15.3385 15.5203 15.2983 15.5523 15.2498C16.1872 14.283 17.1078 14.379 17.9575 14.9305C18.5158 15.2931 19.0587 15.6745 19.6107 16.0444C20.4525 16.6084 20.445 17.1385 19.9336 17.9023ZM14.654 8.26126C14.4671 8.26126 14.2791 8.27535 14.0945 8.30352C13.7825 8.35152 13.4888 8.159 13.4368 7.87466C13.3848 7.59032 13.5951 7.32163 13.9065 7.27415C14.1528 7.23711 14.4042 7.21781 14.654 7.21781C17.13 7.21781 19.1438 9.0569 19.1438 11.317C19.1438 11.5466 19.1227 11.7761 19.0821 12C19.0347 12.2546 18.793 12.4351 18.5187 12.4351C18.4872 12.4351 18.4552 12.433 18.4232 12.4278C18.1124 12.3798 17.9021 12.1111 17.9547 11.8267C17.9855 11.6603 18.0009 11.4892 18.0009 11.317C18.0009 9.63184 16.4997 8.26126 14.654 8.26126ZM17.4295 11.3916C17.4295 11.6796 17.1735 11.9134 16.858 11.9134C16.5426 11.9134 16.2866 11.6796 16.2866 11.3916C16.2866 10.5287 15.5174 9.82644 14.5722 9.82644C14.2568 9.82644 14.0008 9.59271 14.0008 9.30472C14.0008 9.01672 14.2568 8.78299 14.5722 8.78299C16.1477 8.78299 17.4295 9.95322 17.4295 11.3916ZM20.6919 12.5504C20.6319 12.793 20.3965 12.9568 20.1353 12.9568C20.0936 12.9568 20.0507 12.9526 20.0084 12.9438C19.7004 12.8801 19.5079 12.6005 19.5776 12.3198C19.6604 11.9864 19.7021 11.6426 19.7021 11.2967C19.7021 8.76003 17.4415 6.69608 14.6631 6.69608C14.2842 6.69608 13.9076 6.73416 13.5425 6.80981C13.2362 6.87451 12.9287 6.69764 12.859 6.41643C12.7893 6.13522 12.9819 5.8561 13.2899 5.79245C13.7379 5.69958 14.2002 5.65262 14.6637 5.65262C18.0724 5.65262 20.8456 8.18457 20.8456 11.2967C20.8456 11.7198 20.7936 12.1419 20.6919 12.5504Z" fill="#FFE924"/>
</svg>
