<svg width="28" height="28" viewBox="0 0 28 28" fill="none" xmlns="http://www.w3.org/2000/svg">
<path d="M14.0002 2C7.37324 2 2.00024 7.373 2.00024 14C2.00024 16.2512 2.63259 18.3501 3.71118 20.1504L2.10767 26L8.08228 24.4316C9.8296 25.4251 11.8467 26 14.0002 26C20.6272 26 26.0002 20.627 26.0002 14C26.0002 7.373 20.6272 2 14.0002 2ZM9.89282 8.40234C10.0878 8.40234 10.2882 8.40116 10.4612 8.41016C10.6752 8.41516 10.9081 8.43083 11.1311 8.92383C11.3961 9.50983 11.9731 10.9799 12.0471 11.1289C12.1211 11.2779 12.1736 11.4534 12.0706 11.6484C11.9726 11.8484 11.9216 11.9695 11.7776 12.1465C11.6286 12.3185 11.4653 12.5321 11.3303 12.6621C11.1813 12.8111 11.0275 12.9745 11.1995 13.2715C11.3715 13.5685 11.9688 14.5421 12.8518 15.3281C13.9868 16.3421 14.9444 16.6537 15.2424 16.8027C15.5404 16.9517 15.713 16.9285 15.885 16.7285C16.062 16.5335 16.6284 15.8644 16.8284 15.5664C17.0234 15.2684 17.2224 15.32 17.4924 15.418C17.7664 15.516 19.2276 16.2358 19.5256 16.3848C19.8236 16.5338 20.019 16.6075 20.094 16.7285C20.171 16.8535 20.1711 17.4486 19.9241 18.1426C19.6771 18.8356 18.4642 19.5057 17.9202 19.5527C17.3712 19.6037 16.8588 19.7995 14.3518 18.8125C11.3278 17.6215 9.42073 14.5242 9.27173 14.3242C9.12273 14.1292 8.06079 12.7139 8.06079 11.2539C8.06079 9.78891 8.8289 9.07144 9.0979 8.77344C9.3719 8.47544 9.69282 8.40234 9.89282 8.40234Z" fill="#FFE924"/>
</svg>
