<svg width="28" height="28" viewBox="0 0 28 28" fill="none" xmlns="http://www.w3.org/2000/svg">
<path fill-rule="evenodd" clip-rule="evenodd" d="M24.1728 5.58115C25.2864 5.89418 26.1646 6.81052 26.4643 7.97302C27.0213 10.0964 26.9999 14.5224 26.9999 14.5224C26.9999 14.5224 26.9999 18.9258 26.4645 21.0493C26.1646 22.2116 25.2866 23.1282 24.1728 23.441C22.1382 24 13.9999 24 13.9999 24C13.9999 24 5.88291 24 3.82708 23.4189C2.71326 23.1058 1.83531 22.1893 1.53538 21.027C1 18.9258 1 14.5 1 14.5C1 14.5 1 10.0964 1.53538 7.97302C1.83511 6.81073 2.73469 5.87182 3.82688 5.55899C5.86149 5 13.9997 5 13.9997 5C13.9997 5 22.1382 5 24.1728 5.58115ZM18.1764 14.5001L11.4088 18.5684V10.4319L18.1764 14.5001Z" fill="#FFE924"/>
</svg>
